<svg xmlns="http://www.w3.org/2000/svg" xmlns:xlink="http://www.w3.org/1999/xlink" width="1366" height="405" viewBox="0 0 1366 405"><defs><style>.a{fill:#fff;stroke:#707070;}.b{clip-path:url(#a);}.c{opacity:0.85;fill:url(#b);}.d{fill:url(#c);}</style><clipPath id="a"><rect class="a" width="1366" height="405" transform="translate(0 3069)"/></clipPath><linearGradient id="b" x1="0.503" y1="0.406" x2="0.5" y2="1" gradientUnits="objectBoundingBox"><stop offset="0" stop-color="#2452be"/><stop offset="1" stop-color="#db1d1d"/></linearGradient><linearGradient id="c" x1="0.497" y1="0.205" x2="0.475" y2="0.826" xlink:href="#b"/></defs><g class="b" transform="translate(0 -3069)"><g transform="translate(-70 3103.293)"><path class="c" d="M2824.23,3225.253s-270.735-58.106-400.043,117.5-428.892-14.2-601.73,40.029-410.969,28.407-446.817-143.327-8.962,383.5-8.962,383.5l1433.909-63.271Z" transform="translate(-1325.23 -3206.495)"/><path class="d" d="M1357,3225.253s290.582-58.106,429.369,117.5,460.333-14.2,645.841,40.029,441.1,28.407,479.572-143.327,9.619,383.5,9.619,383.5l-1539.026-63.271Z" transform="translate(-1357 -3099.372)"/></g></g></svg>